<?xml version="1.0" encoding="utf-8"?><svg xmlns="http://www.w3.org/2000/svg" xmlns:xlink="http://www.w3.org/1999/xlink"><symbol viewBox="0 0 482.9 482.9" id="avatar" xmlns="http://www.w3.org/2000/svg"><path d="M239.7 260.2h3.2c29.3-.5 53-10.8 70.5-30.5 38.5-43.4 32.1-117.8 31.4-124.9-2.5-53.3-27.7-78.8-48.5-90.7C280.8 5.2 262.7.4 242.5 0h-1.7c-11.1 0-32.9 1.8-53.8 13.7-21 11.9-46.6 37.4-49.1 91.1-.7 7.1-7.1 81.5 31.4 124.9 17.4 19.7 41.1 30 70.4 30.5zm-75.1-152.9c0-.3.1-.6.1-.8 3.3-71.7 54.2-79.4 76-79.4h1.2c27 .6 72.9 11.6 76 79.4 0 .3 0 .6.1.8.1.7 7.1 68.7-24.7 104.5-12.6 14.2-29.4 21.2-51.5 21.4h-1c-22-.2-38.9-7.2-51.4-21.4-31.7-35.6-24.9-103.9-24.8-104.5z"/><path d="M446.8 383.6v-.3c0-.8-.1-1.6-.1-2.5-.6-19.8-1.9-66.1-45.3-80.9-.3-.1-.7-.2-1-.3-45.1-11.5-82.6-37.5-83-37.8-6.1-4.3-14.5-2.8-18.8 3.3-4.3 6.1-2.8 14.5 3.3 18.8 1.7 1.2 41.5 28.9 91.3 41.7 23.3 8.3 25.9 33.2 26.6 56 0 .9 0 1.7.1 2.5.1 9-.5 22.9-2.1 30.9-16.2 9.2-79.7 41-176.3 41-96.2 0-160.1-31.9-176.4-41.1-1.6-8-2.3-21.9-2.1-30.9 0-.8.1-1.6.1-2.5.7-22.8 3.3-47.7 26.6-56 49.8-12.8 89.6-40.6 91.3-41.7 6.1-4.3 7.6-12.7 3.3-18.8-4.3-6.1-12.7-7.6-18.8-3.3-.4.3-37.7 26.3-83 37.8-.4.1-.7.2-1 .3-43.4 14.9-44.7 61.2-45.3 80.9 0 .9 0 1.7-.1 2.5v.3c-.1 5.2-.2 31.9 5.1 45.3 1 2.6 2.8 4.8 5.2 6.3 3 2 74.9 47.8 195.2 47.8s192.2-45.9 195.2-47.8c2.3-1.5 4.2-3.7 5.2-6.3 5-13.3 4.9-40 4.8-45.2z"/></symbol><symbol viewBox="0 0 437.6 437.6" id="information" xmlns="http://www.w3.org/2000/svg"><path d="M194 142.8c.8 1.6 1.6 3.2 2.4 4.4.8 1.2 2 2.4 2.8 3.6 1.2 1.2 2.4 2.4 4 3.6 1.2.8 2.8 2 4.8 2.4 1.6.8 3.2 1.2 5.2 1.6 2 .4 3.6.4 5.2.4s3.6 0 5.2-.4 3.2-.8 4.4-1.6h.4c1.6-.8 3.2-1.6 4.8-2.8 1.2-.8 2.4-2 3.6-3.2l.4-.4c1.2-1.2 2-2.4 2.8-3.6s1.6-2.4 2-4c0-.4 0-.4.4-.8.8-1.6 1.2-3.6 1.6-5.2.4-1.6.4-3.6.4-5.2s0-3.6-.4-5.2-.8-3.2-1.6-5.2c-1.2-2.8-2.8-5.2-4.8-7.2l-.8-.8c-1.2-1.2-2.4-2-4-3.2-1.6-.8-2.8-1.6-4.4-2.4-1.6-.8-3.2-1.2-4.8-1.6-2-.4-3.6-.4-5.2-.4s-3.6 0-5.2.4-3.2.8-4.8 1.6h-.4c-1.6.8-3.2 1.6-4.4 2.4-1.6 1.2-2.8 2-4 3.2-1.2 1.2-2.4 2.4-3.2 3.6-.8 1.2-1.6 2.8-2.4 4.4-.8 1.6-1.2 3.2-1.6 4.8-.4 2-.4 3.6-.4 5.2s0 3.6.4 5.2c.4 3.2 1.2 4.8 1.6 6.4zm55.6 146.4h-9.2v-98c0-5.6-4.4-10.4-10.4-10.4h-42c-5.6 0-10.4 4.4-10.4 10.4v21.6c0 5.6 4.4 10.4 10.4 10.4h8.4v66.4H188c-5.6 0-10.4 4.4-10.4 10.4v21.6c0 5.6 4.4 10.4 10.4 10.4h61.6c5.6 0 10.4-4.4 10.4-10.4V300c0-6-4.8-10.8-10.4-10.8z"/><path d="M218.8 0C98 0 0 98 0 218.8s98 218.8 218.8 218.8 218.8-98 218.8-218.8S339.6 0 218.8 0zm0 408.8c-104.8 0-190-85.2-190-190s85.2-190 190-190 190 85.2 190 190-85.2 190-190 190z"/></symbol><symbol viewBox="0 0 475.084 475.084" id="magnifying-glass" xmlns="http://www.w3.org/2000/svg"><path d="M464.524 412.846l-97.929-97.925c23.6-34.068 35.406-72.047 35.406-113.917 0-27.218-5.284-53.249-15.852-78.087-10.561-24.842-24.838-46.254-42.825-64.241-17.987-17.987-39.396-32.264-64.233-42.826C254.246 5.285 228.217.003 200.999.003c-27.216 0-53.247 5.282-78.085 15.847C98.072 26.412 76.66 40.689 58.673 58.676c-17.989 17.987-32.264 39.403-42.827 64.241C5.282 147.758 0 173.786 0 201.004c0 27.216 5.282 53.238 15.846 78.083 10.562 24.838 24.838 46.247 42.827 64.234 17.987 17.993 39.403 32.264 64.241 42.832 24.841 10.563 50.869 15.844 78.085 15.844 41.879 0 79.852-11.807 113.922-35.405l97.929 97.641c6.852 7.231 15.406 10.849 25.693 10.849 9.897 0 18.467-3.617 25.694-10.849 7.23-7.23 10.848-15.796 10.848-25.693.003-10.082-3.518-18.651-10.561-25.694zM291.363 291.358c-25.029 25.033-55.148 37.549-90.364 37.549-35.21 0-65.329-12.519-90.36-37.549-25.031-25.029-37.546-55.144-37.546-90.36 0-35.21 12.518-65.334 37.546-90.36 25.026-25.032 55.15-37.546 90.36-37.546 35.212 0 65.331 12.519 90.364 37.546 25.033 25.026 37.548 55.15 37.548 90.36 0 35.216-12.519 65.331-37.548 90.36z"/></symbol><symbol viewBox="0 0 512 512" id="shopping-cart" xmlns="http://www.w3.org/2000/svg"><path d="M509.867 89.6c-2.133-2.133-4.267-4.267-8.533-4.267H96L85.333 29.867c0-4.267-6.4-8.533-10.667-8.533h-64C4.267 21.333 0 25.6 0 32s4.267 10.667 10.667 10.667h55.467l51.2 260.267c6.4 34.133 38.4 59.733 72.533 59.733H435.2c6.4 0 10.667-4.267 10.667-10.667 0-6.4-4.267-10.667-10.667-10.667H192c-17.067 0-34.133-8.533-42.667-23.467L460.8 275.2c4.267 0 8.533-4.267 8.533-8.533L512 96s0-4.267-2.133-6.4zM450.133 256l-311.467 40.533-38.4-192H486.4L450.133 256zm-268.8 128C151.467 384 128 407.467 128 437.333c0 29.867 23.467 53.333 53.333 53.333 29.867 0 53.333-23.467 53.333-53.333C234.667 407.467 211.2 384 181.333 384zm0 85.333c-17.067 0-32-14.934-32-32s14.933-32 32-32 32 14.934 32 32-14.933 32-32 32zM394.667 384c-29.867 0-53.333 23.467-53.333 53.333 0 29.867 23.467 53.333 53.333 53.333 29.867 0 53.333-23.467 53.333-53.333S424.533 384 394.667 384zm0 85.333c-17.067 0-32-14.934-32-32s14.933-32 32-32 32 14.934 32 32-14.934 32-32 32z"/></symbol><symbol viewBox="0 0 60 60" id="worldwide" xmlns="http://www.w3.org/2000/svg"><path d="M47.007 5.305l.049-.032-1.323-.816c-.078-.048-.16-.088-.238-.136a30.705 30.705 0 0 0-1.323-.754c-.227-.122-.457-.237-.687-.353a29.078 29.078 0 0 0-1.022-.492c-.203-.093-.405-.188-.609-.276a29.737 29.737 0 0 0-1.626-.648c-.113-.041-.228-.076-.342-.116A30.211 30.211 0 0 0 36.305.674c-.053-.011-.104-.025-.157-.036a29.393 29.393 0 0 0-1.865-.325c-.138-.02-.278-.035-.416-.053a30.133 30.133 0 0 0-1.483-.154c-.168-.013-.335-.028-.503-.038A27.927 27.927 0 0 0 30 0a30.32 30.32 0 0 0-2.557.116c-.631.053-1.258.121-1.878.214l-.186.026a29.606 29.606 0 0 0-2.454.494c-.562.136-1.118.285-1.667.452-.174.053-.346.111-.518.167-.492.16-.979.333-1.459.518a29.434 29.434 0 0 0-2.291.984c-.176.085-.349.18-.524.269-.418.212-.83.433-1.236.664-.203.115-.405.229-.606.349-.508.305-1.007.623-1.495.956-.067.046-.138.084-.204.131l-.545.378.005.022C4.887 11.197 0 20.036 0 30c0 16.542 13.458 30 30 30s30-13.458 30-30c0-10.231-5.152-19.278-12.993-24.695zM15.089 6.318c.323-.204.65-.401.98-.591.183-.106.364-.215.55-.317.464-.254.935-.491 1.411-.717.206-.098.414-.189.623-.282.349-.155.7-.302 1.054-.443.195-.078.389-.159.587-.232.506-.188 1.018-.36 1.534-.517.189-.058.382-.109.573-.163.401-.113.804-.218 1.211-.313.182-.043.364-.088.547-.127a28.172 28.172 0 0 1 1.689-.308c.129-.019.26-.032.389-.05a28.745 28.745 0 0 1 1.948-.195A30.417 30.417 0 0 1 30 2c.529 0 1.057.018 1.583.048.151.008.3.023.45.034.379.028.758.06 1.135.103.167.019.333.042.499.064a26.515 26.515 0 0 1 1.571.251c.377.072.752.153 1.125.24.138.032.277.062.414.096.46.115.917.241 1.37.379.046.014.093.025.139.039.484.15.962.316 1.437.491.19.071.376.148.564.223.276.109.55.22.823.338a29.606 29.606 0 0 1 1.784.852c-3.822 1.532-6.196 3.409-8.853 6.866a2.645 2.645 0 0 0-.551 1.686c-.229-.552-.565-.972-1.013-1.266-.926-.608-2.138-.565-3.703.133l-.285.032c-2.006.224-3.111.348-3.211 2.53-.051 1.104.541 2.194 1.508 2.776.245.147.502.254.764.319.028.095.072.192.137.29l.403.557.643-.107a6.964 6.964 0 0 1 1.325-.104c-.047.444.031.898.231 1.303.278.562.756.972 1.346 1.154.564.174.613.343.681.576.321 1.105 1.051 1.922 2.003 2.239.91.305 1.921.108 2.778-.535.514-.389.805-.308 1.928.235.733.354 1.646.796 2.828.948.186.023.297.079.338.122.813.854 1.437 1.916 2.04 2.943.924 1.573 1.797 3.06 3.299 3.839 1.175.611-.141 4.06-.772 5.717-.127.334-.246.645-.345.923-1.524 1.174-2.455 2.507-3.356 3.797-.807 1.155-1.641 2.35-2.934 3.462-1.953 1.681-3.605 2.688-5.523 3.37a.525.525 0 0 1-.594-.163.496.496 0 0 1-.06-.584c1.973-3.532 4.255-8.513 1.301-10.958-2.896-2.396-3.98-5.875-2.764-8.861.517-1.268-.06-2.69-1.337-3.358-.109-.133-.187-.714-.238-1.099-.113-.845-.253-1.896-.878-2.813-.26-.38-.726-.723-1.047-.879-1.221-.598-2.393-.769-3.526-.933-.902-.132-1.755-.256-2.625-.589-3.313-1.271-5.671-6.646-7.393-10.572-.246-.562-.483-1.101-.711-1.606l.361-.23zM30 58C14.561 58 2 45.439 2 30c0-9.077 4.345-17.156 11.061-22.275.177.397.358.807.546 1.235 1.967 4.485 4.415 10.066 8.508 11.636 1.077.413 2.082.56 3.053.7 1.026.149 1.995.29 2.937.752.076.037.233.159.273.209.357.524.454 1.248.547 1.948.129.966.275 2.061 1.253 2.578.318.169.596.509.453.86-1.553 3.812-.242 8.191 3.341 11.157.918.76 1.356 2.842-1.772 8.442a2.497 2.497 0 0 0 .279 2.851 2.525 2.525 0 0 0 2.792.756c2.165-.77 4.006-1.888 6.157-3.739 1.485-1.276 2.392-2.575 3.27-3.832.886-1.269 1.724-2.468 3.097-3.479.2-.146.348-.345.427-.575.108-.316.25-.688.406-1.098 1.028-2.696 2.582-6.771-.174-8.204-.991-.515-1.688-1.702-2.497-3.077-.63-1.073-1.345-2.289-2.316-3.311-.376-.395-.906-.646-1.53-.727-.86-.11-1.547-.443-2.213-.765-1.097-.531-2.464-1.191-4.001-.034-.232.175-.583.356-.943.238-.32-.107-.581-.435-.715-.899-.194-.671-.599-1.495-2.012-1.931a.238.238 0 0 1-.143-.131.404.404 0 0 1-.003-.325c.189-.515.111-1.035-.214-1.428-.357-.432-.994-.654-1.901-.668a.987.987 0 0 0-.263-.471l-.607-.555-.682.402c-.177.105-.377.092-.594-.04-.336-.201-.559-.601-.542-.971.01-.229.025-.359.038-.434.245-.072.83-.138 1.398-.201l.607-.069.147-.068c.893-.415 1.608-.541 1.912-.344.123.081.519.469.474 2.076l-.025.888.878.13c1.141.171 1.987-.052 2.514-.657.545-.626.644-1.555.291-2.761a.637.637 0 0 1 .115-.547c2.767-3.6 5.089-5.257 9.508-6.783C52.866 11.45 58 20.134 58 30c0 15.439-12.561 28-28 28z"/></symbol></svg>